<?xml version="1.0" encoding="UTF-8"?>
<svg id="_Слой_1" data-name="Слой 1" xmlns="http://www.w3.org/2000/svg" viewBox="0 0 76.01562 20">
  <path d="M16.16193,1.59998h.00055c-.97247,1.30005-1.20746,1.73315-2.14618,1.73315H0v16.66687h5.49939c1.2406,0,2.44751-.59998,3.21875-1.59998,1.00629-1.33313,1.13995-1.73315,2.11249-1.73315h14.04999V0h-5.53314c-1.2406,0-2.44745.59998-3.18555,1.59998ZM20.52118,12.36688h-5.8681c-1.27435,0-2.44745.53314-3.21869,1.56622-1.00629,1.3338-1.20746,1.73376-2.1463,1.73376h-4.96246V7.66687h5.8681c1.2738,0,2.44745-.59998,3.21875-1.59998,1.00623-1.30005,1.27441-1.70001,2.17944-1.70001h4.92926v8Z" fill="#fff" stroke-width="0"/>
  <polygon points="76.01562 4.36688 72.72943 4.36688 69.69501 8.37872 66.66058 4.36627 63.37439 4.36627 68.01062 10.56439 63.37439 16.66687 66.72748 16.66687 69.6781 12.77557 72.62878 16.66687 76.01562 16.66687 71.34808 10.5744 76.01562 4.36688" fill="#fff" stroke-width="0"/>
  <path d="M51.4375,4.13312c-1.34869,0-2.38879.48065-3.35382,1.48376v-1.25h-2.64868v12.29999h2.84998v-7.13373c0-1.63312.97253-2.66626,2.44812-2.66626.26813,0,.50323.03314.67072.06622l1.97809-2.59998c-.7713-.13312-1.44128-.20001-1.9444-.20001Z" fill="#fff" stroke-width="0"/>
  <path d="M41.5788,8.26691c1.24121-.70001,2.11243-1.93378,2.11243-3.56689,0-2.40002-1.84375-4.70001-4.52625-4.70001h-8.04749v16.66687h8.04749c2.91693,0,4.92883-2.06689,4.92883-4.66687,0-1.53308-.7038-2.86688-2.51501-3.73309ZM33.96753,2.59998h4.96246c1.2406,0,1.97809,1.16687,1.97809,2.20001,0,1.26691-1.1062,2.13312-2.14557,2.13312h-4.79498V2.59998ZM38.76251,14.06689h-4.79498v-4.53375h4.96246c1.27441,0,2.31372,1.09998,2.31372,2.23376,0,1.26617-1.3075,2.29999-2.4812,2.29999Z" fill="#fff" stroke-width="0"/>
  <path d="M60.52441,13.1333c-.46942.73383-1.375,1.16687-2.38129,1.16687-1.57501,0-2.88312-1.06689-2.88312-2.69995h8.51691c.13428-.5.16748-.73309.16748-1.16693,0-3.73309-2.31378-6.29999-5.80072-6.29999-3.42059,0-5.83429,2.43378-5.83429,6.40002,0,3.86688,2.31311,6.36688,5.90125,6.36688,2.51495,0,4.72809-1.23309,5.36499-3.76691h-3.05121ZM58.14313,6.73328c1.57629,0,2.78375,1,2.75,2.5h-5.60004c0-1.46625,1.27502-2.5,2.85004-2.5Z" fill="#fff" stroke-width="0"/>
</svg>