<?xml version="1.0" encoding="utf-8"?>
<!-- Generator: Adobe Illustrator 28.2.0, SVG Export Plug-In . SVG Version: 6.00 Build 0)  -->
<svg version="1.1" id="Слой_1" xmlns="http://www.w3.org/2000/svg" xmlns:xlink="http://www.w3.org/1999/xlink" x="0px" y="0px"
	 viewBox="0 0 78 20" style="enable-background:new 0 0 78 20;" xml:space="preserve">
<style type="text/css">
	.st0{fill:#FFFFFF;}
</style>
<path class="st0" d="M52.3,4.1c-1.3,0-2.4,0.5-3.4,1.5V4.4h-2.6v12.3h2.8V9.5c0-1.6,1-2.7,2.4-2.7c0.3,0,0.5,0,0.7,0.1l2-2.6
	C53.5,4.2,52.8,4.1,52.3,4.1z M76.9,4.4h-3.3l-3,4l-3-4h-3.3l4.6,6.2l-4.6,6.1h3.4l3-3.9l3,3.9h3.4l-4.7-6.1L76.9,4.4z M17,1.6
	c-1,1.3-1.2,1.7-2.1,1.7h-14V20h5.5c1.2,0,2.4-0.6,3.2-1.6c1-1.3,1.1-1.7,2.1-1.7h14.1V0h-5.5C19,0,17.8,0.6,17,1.6L17,1.6z
	 M21.4,12.4h-5.9c-1.3,0-2.4,0.5-3.2,1.6c-1,1.3-1.2,1.7-2.1,1.7h-5v-8h5.9c1.3,0,2.4-0.6,3.2-1.6c1-1.3,1.3-1.7,2.2-1.7h4.9V12.4z
	 M42.5,8.3c1.2-0.7,2.1-1.9,2.1-3.6C44.6,2.3,42.7,0,40,0h-8v16.7h8c2.9,0,4.9-2.1,4.9-4.7C45,10.5,44.3,9.1,42.5,8.3z M34.8,2.6h5
	c1.2,0,2,1.2,2,2.2c0,1.3-1.1,2.1-2.1,2.1h-4.8V2.6z M39.6,14.1h-4.8V9.5h5c1.3,0,2.3,1.1,2.3,2.2C42.1,13,40.8,14.1,39.6,14.1z"/>
<path class="st0" d="M61.4,13.1c-0.5,0.7-1.4,1.2-2.4,1.2c-1.6,0-2.9-1.1-2.9-2.7h8.5c0.1-0.5,0.2-0.7,0.2-1.2
	c0-3.7-2.3-6.3-5.8-6.3c-3.4,0-5.8,2.4-5.8,6.4c0,3.9,2.3,6.4,5.9,6.4c2.5,0,4.7-1.2,5.4-3.8H61.4z M59,6.7c1.6,0,2.8,1,2.8,2.5
	h-5.6C56.2,7.8,57.4,6.7,59,6.7z"/>
</svg>
